<svg width="32" height="32" viewBox="0 0 32 32" xmlns="http://www.w3.org/2000/svg">
  <defs>
    <linearGradient id="favicon-gradient" x1="0%" y1="0%" x2="100%" y2="100%">
      <stop offset="0%" style="stop-color:#4F46E5;stop-opacity:1" />
      <stop offset="100%" style="stop-color:#7C3AED;stop-opacity:1" />
    </linearGradient>
  </defs>
  
  <!-- Background rounded rectangle -->
  <rect x="2" y="2" width="28" height="28" rx="6" ry="6" fill="url(#favicon-gradient)"/>
  
  <!-- Letter S -->
  <path d="M 12 8 
           C 14 7, 18 7, 20 8
           C 20 10, 18 11, 16 11
           L 14 11
           C 12 11, 10 12, 10 14
           C 10 16, 12 17, 14 17
           L 22 17
           C 24 17, 26 19, 26 21
           C 26 23, 24 25, 22 25
           L 14 25
           C 12 25, 10 23, 10 21" 
        fill="white" 
        stroke="white" 
        stroke-width="1.5" 
        stroke-linecap="round" 
        stroke-linejoin="round"/>
</svg>